PathFileType	4	(X/Y/Z)	C:/Users/Carlo/Dropbox/Carlos/SARAH/CongressoMarcha2025/WorkshopOpenSim/C3D/Caso03/pyCGM2 Static.c3d.trc
DataRate	CameraRate	NumFrames	NumMarkers	Units	OrigDataRate	OrigDataStartFrame	OrigNumFrames
100.000000	100.000000	3	128	mm	100.000000	105	422
Frame#	Time	LASI			RASI			LPSI			RPSI			LTHI			LTHAP			LTHAD			LKNE			LKNM			LTIB			LTIAP			LTIAD			LANK			LMED			LHEE			LTOE			RTHI			RTHAP			RTHAD			RKNE			RKNM			RTIB			RTIAP			RTIAD			RANK			RMED			RHEE			RTOE			PELO			PELA			PELL			PELP			LFEO			LFEA			LFEL			LFEP			LTIO			LTIA			LTIL			LTIP			LFOO			LFOA			LFOL			LFOP			LTOO			LTOA			LTOL			LTOP			RFEO			RFEA			RFEL			RFEP			RTIO			RTIA			RTIL			RTIP			RFOO			RFOA			RFOL			RFOP			RTOO			RTOA			RTOL			RTOP			PELVIS_CGM_2.3O			PELVIS_CGM_2.3A			PELVIS_CGM_2.3L			PELVIS_CGM_2.3P			LFEMUR_CGM_2.3O			LFEMUR_CGM_2.3A			LFEMUR_CGM_2.3L			LFEMUR_CGM_2.3P			LTIBIA_CGM_2.3O			LTIBIA_CGM_2.3A			LTIBIA_CGM_2.3L			LTIBIA_CGM_2.3P			LFOOT_CGM_2.3O			LFOOT_CGM_2.3A			LFOOT_CGM_2.3L			LFOOT_CGM_2.3P			LTOES_CGM_2.3O			LTOES_CGM_2.3A			LTOES_CGM_2.3L			LTOES_CGM_2.3P			RFEMUR_CGM_2.3O			RFEMUR_CGM_2.3A			RFEMUR_CGM_2.3L			RFEMUR_CGM_2.3P			RTIBIA_CGM_2.3O			RTIBIA_CGM_2.3A			RTIBIA_CGM_2.3L			RTIBIA_CGM_2.3P			RFOOT_CGM_2.3O			RFOOT_CGM_2.3A			RFOOT_CGM_2.3L			RFOOT_CGM_2.3P			RTOES_CGM_2.3O			RTOES_CGM_2.3A			RTOES_CGM_2.3L			RTOES_CGM_2.3P			LHipAngles			LKneeAngles			LAbsAnkleAngle			LAnkleAngles			RHipAngles			RKneeAngles			RAnkleAngles			RAbsAnkleAngle			LPelvisAngles			RPelvisAngles			LFootProgressAngles			RFootProgressAngles			LHipAngles_CGM_2.3			LKneeAngles_CGM_2.3			LAnkleAngles_CGM_2.3			RHipAngles_CGM_2.3			RKneeAngles_CGM_2.3			RAnkleAngles_CGM_2.3			LFootProgressAngles_CGM_2.3			RFootProgressAngles_CGM_2.3			LPelvisAngles_CGM_2.3			RPelvisAngles_CGM_2.3			LHJC_CGM_2.3			LKJC_CGM_2.3			RHJC_CGM_2.3			RKJC_CGM_2.3			LAJC_CGM_2.3			RAJC_CGM_2.3			
		X1	Y1	Z1	X2	Y2	Z2	X3	Y3	Z3	X4	Y4	Z4	X5	Y5	Z5	X6	Y6	Z6	X7	Y7	Z7	X8	Y8	Z8	X9	Y9	Z9	X10	Y10	Z10	X11	Y11	Z11	X12	Y12	Z12	X13	Y13	Z13	X14	Y14	Z14	X15	Y15	Z15	X16	Y16	Z16	X17	Y17	Z17	X18	Y18	Z18	X19	Y19	Z19	X20	Y20	Z20	X21	Y21	Z21	X22	Y22	Z22	X23	Y23	Z23	X24	Y24	Z24	X25	Y25	Z25	X26	Y26	Z26	X27	Y27	Z27	X28	Y28	Z28	X29	Y29	Z29	X30	Y30	Z30	X31	Y31	Z31	X32	Y32	Z32	X33	Y33	Z33	X34	Y34	Z34	X35	Y35	Z35	X36	Y36	Z36	X37	Y37	Z37	X38	Y38	Z38	X39	Y39	Z39	X40	Y40	Z40	X41	Y41	Z41	X42	Y42	Z42	X43	Y43	Z43	X44	Y44	Z44	X45	Y45	Z45	X46	Y46	Z46	X47	Y47	Z47	X48	Y48	Z48	X49	Y49	Z49	X50	Y50	Z50	X51	Y51	Z51	X52	Y52	Z52	X53	Y53	Z53	X54	Y54	Z54	X55	Y55	Z55	X56	Y56	Z56	X57	Y57	Z57	X58	Y58	Z58	X59	Y59	Z59	X60	Y60	Z60	X61	Y61	Z61	X62	Y62	Z62	X63	Y63	Z63	X64	Y64	Z64	X65	Y65	Z65	X66	Y66	Z66	X67	Y67	Z67	X68	Y68	Z68	X69	Y69	Z69	X70	Y70	Z70	X71	Y71	Z71	X72	Y72	Z72	X73	Y73	Z73	X74	Y74	Z74	X75	Y75	Z75	X76	Y76	Z76	X77	Y77	Z77	X78	Y78	Z78	X79	Y79	Z79	X80	Y80	Z80	X81	Y81	Z81	X82	Y82	Z82	X83	Y83	Z83	X84	Y84	Z84	X85	Y85	Z85	X86	Y86	Z86	X87	Y87	Z87	X88	Y88	Z88	X89	Y89	Z89	X90	Y90	Z90	X91	Y91	Z91	X92	Y92	Z92	X93	Y93	Z93	X94	Y94	Z94	X95	Y95	Z95	X96	Y96	Z96	X97	Y97	Z97	X98	Y98	Z98	X99	Y99	Z99	X100	Y100	Z100	X101	Y101	Z101	X102	Y102	Z102	X103	Y103	Z103	X104	Y104	Z104	X105	Y105	Z105	X106	Y106	Z106	X107	Y107	Z107	X108	Y108	Z108	X109	Y109	Z109	X110	Y110	Z110	X111	Y111	Z111	X112	Y112	Z112	X113	Y113	Z113	X114	Y114	Z114	X115	Y115	Z115	X116	Y116	Z116	X117	Y117	Z117	X118	Y118	Z118	X119	Y119	Z119	X120	Y120	Z120	X121	Y121	Z121	X122	Y122	Z122	X123	Y123	Z123	X124	Y124	Z124	X125	Y125	Z125	X126	Y126	Z126	X127	Y127	Z127	X128	Y128	Z128	

106	1.05	310.042938232422	988.8811035156255	311.3579101562501	312.6268615722657	977.4495239257817	48.54824066162112	506.1401062011721	991.7587280273442	231.2114715576173	507.8555603027346	988.514038085938	128.8632507324219	342.0671997070314	651.7521972656252	369.1689453125001	256.8321838378907	786.9729003906255	313.9088745117189	239.553192138672	623.0943603515627	307.7223510742189	325.7823486328126	490.7626647949221	362.5562438964845	304.4041137695314	469.7090454101565	238.0753479003907	400.9688720703127	262.8974609375001	365.5603637695314	288.9477844238282	376.4436950683595	294.9886474609376	347.9651184082032	207.8894958496095	290.7755737304689	430.7512207031252	88.19729614257815	348.6643981933595	391.7135925292971	92.91276550292972	264.5620422363282	466.0916137695315	57.79788970947268	299.272674560547	277.7733154296876	56.21465301513675	339.1593627929689	351.4669189453126	686.007995605469	-2.146863460540772	257.0688781738282	778.0155639648442	65.79756164550784	243.2108001708986	611.6413574218752	67.893180847168	313.4027099609376	474.068786621094	25.90108299255373	291.9929199218751	468.2371520996096	140.8842163085938	372.145233154297	302.2426757812501	11.40099716186524	309.5490722656251	316.6760253906251	100.9422683715821	344.459442138672	184.1405792236329	91.307975769043	419.4360656738284	78.55705261230472	45.04426956176759	390.615417480469	93.27513122558597	131.1275787353516	463.3790588378909	50.61211776733401	95.46912384033206	274.2792968750001	47.48217391967775	65.680778503418	355.7883300781251	896.3527832031255	184.1662750244141	193.7713317871095	890.5248413085942	182.826889038086	354.1959533691407	903.3978881835942	346.1326293945314	350.0243530273439	1058.221923828125	177.0687255859376	313.5415344238282	486.4684143066409	306.0255737304689	-91.72796630859378	537.907165527344	389.8728637695315	401.5567016601565	517.3455200195315	712.4976806640627	357.4691772460939	899.167114257813	265.1636352539064	412.670593261719	90.3813171386719	309.711639404297	67.5479431152344	5.453674316406252	465.1447753906252	562.6804809570315	131.2318725585938	665.112976074219	318.494110107422	466.6795349121096	306.2097167968751	286.5047302246095	78.55360412597659	350.0272521972657	280.9525756835939	263.2304687500001	331.143524169922	324.6145324707032	98.17726135253912	530.7356567382815	468.1907043457034	80.08094024658206	311.5454101562501	225.9427490234376	78.04443359375003	362.8545837402345	224.0919799804689	139.6034088134766	356.5600585937501	238.6460418701173	84.58563995361331	423.0907287597659	286.5046997070314	78.55360412597659	350.0272827148439	300.1878662109376	472.9270935058596	81.85028839111331	-109.5025634765626	530.2920532226565	-13.74573516845704	202.6070556640626	464.4964599609377	494.987731933594	354.1074829101564	893.5383300781255	103.1689529418946	405.9604797363284	85.43876647949222	85.29411315917972	51.56353759765628	-12.20707702636719	-16.66285705566407	306.7685852050782	61.62934875488284	452.882507324219	305.5070190429689	453.4407958984377	82.02346038818362	278.816864013672	72.054069519043	52.39842224121097	274.0946655273439	256.0580139160157	63.04236602783206	250.3620605468751	60.80649185180667	234.2138977050782	460.9187011718752	75.06809997558597	81.08451080322268	218.1162261962892	71.04936981201175	42.83642578125001	216.5421752929689	132.3840332031251	46.38440704345705	208.6313018798829	67.30017852783206	103.4415740966797	278.816864013672	72.05403137207034	52.39844512939456	364.707000732422	910.5100097656255	185.4010009765626	204.2866668701173	904.7091674804692	184.1553955078126	363.2078247070314	917.533325195313	345.7702941894532	358.9664306640626	1070.781372070313	178.3283233642579	316.029998779297	481.2550048828127	306.1610107421876	-111.5335388183594	536.1795043945315	371.1149291992189	385.3905029296877	513.661071777344	735.3291015625002	365.2725524902345	912.5083618164067	265.6390991210939	412.9719848632815	90.53330230712893	309.4450073242189	54.0690612792969	2.829139709472657	469.3478088378909	567.4486083984377	131.9658660888672	678.893981933594	316.0292358398439	481.2551879882815	306.1611328125001	281.7019958496095	76.63059997558597	325.5060119628907	277.9509277343751	262.0493774414064	315.563446044922	319.8930664062501	87.13298034667972	506.956237792969	463.417175292969	78.25083160400393	287.1654052734376	221.1309967041017	76.09059906005862	338.2860107421876	219.8806457519532	137.8967895507813	334.9718322753907	233.8613433837892	79.59138488769534	398.7693481445315	281.7026672363282	76.63067626953128	325.505828857422	302.8510131835939	471.2250061035159	82.49330139160159	-127.9793090820313	535.5383300781252	6.73392486572266	224.6262512207032	459.6376647949221	517.5072021484377	364.1419067382814	908.512084960938	105.1625976562501	405.9909973144534	85.55039978027347	85.38739776611331	34.86270141601564	-14.51009368896485	-22.51395416259766	301.0302124023439	60.364860534668	469.7569274902346	302.8501281738282	471.2246704101565	82.49347686767581	270.1220092773439	70.48429870605472	76.02079772949222	266.138153076172	261.7592163085939	80.63160705566409	240.1263275146486	65.30513000488284	264.9564208984376	459.086608886719	73.69472503662112	106.1090927124024	207.134002685547	69.4142990112305	65.99150085449222	205.8060607910157	133.1725463867188	67.528434753418	197.1354522705079	67.68791198730472	128.9699707031251	270.1221313476564	70.48444366455081	76.02091979980472	-3.205453872680666	-12.47995758056641	8.061978340148929	0.6752715110778811	-10.75279331207276	20.71872520446778	0	0	13.15863227844239	0.00806533079594374	10.88059329986573	13.40394687652589	-5.276388168334963	-12.1498556137085	9.417348861694339	-1.892351269721986	-2.377935409545899	22.74065208435059	0.007156262174248699	6.167260169982914	14.3045883178711	0	0	14.22006607055665	2.509089946746827	0.4738155007362368	2.039387226104737	-2.509089946746827	-0.4738155007362368	2.039387226104737	-5.965623855590822	-11.95836353302002	-89.51831054687503	-3.350436925888063	-8.950869560241703	-89.05174255371097	-2.90235996246338	-9.423379898071293	8.516539573669437	1.478579878807068	-13.4773988723755	20.9379005432129	-2.676219940185548	10.77089881896973	13.26749992370606	-5.347479820251467	-8.997449874877933	10.10359954833985	-0.7596290111541752	-5.445149898529055	23.1741008758545	-1.982559919357301	6.27463006973267	13.97369956970216	3.136409997940065	-168.0859985351563	-90.51090240478518	1.397789835929871	-170.9539947509766	-90.97319793701175	177.4920043945313	0.5356320142745974	-177.9270019531251	-177.4920043945313	-0.5356320142745974	-177.9270019531251	365.2730102539064	912.5089721679692	265.6390075683595	316.029998779297	481.2550048828127	306.1610107421876	364.1409912109376	908.5120239257817	105.1630020141602	302.8510131835939	471.2250061035159	82.49330139160159	412.9719848632815	90.53330230712893	309.4450073242189	405.9909973144534	85.55039978027347	85.38739776611331	
107	1.06	309.8911437988282	988.9572143554692	311.4808349609376	312.3213806152345	977.4201049804692	48.6021423339844	505.9744873046877	991.817504882813	231.2604980468751	507.6827392578127	988.599487304688	128.9233703613282	342.0162048339845	651.7593383789065	369.2158203125001	256.7176513671876	786.9666137695317	314.008758544922	239.3769836425782	623.1033935546877	307.6934204101564	325.710174560547	490.762145996094	362.5701904296876	304.4243774414064	469.7457580566409	238.0950012207032	401.0310668945315	262.963592529297	365.602996826172	288.9986877441407	376.3406982421876	295.0951232910157	347.9529724121095	207.9348907470704	290.8170776367189	430.7320556640627	88.1957702636719	348.6217346191407	391.744812011719	92.917594909668	264.5373535156251	466.0985107421877	57.81713867187503	299.2559509277345	277.7769775390626	56.18401718139651	339.192352294922	351.2763061523439	685.9954833984377	-2.003618240356446	256.8536071777345	778.0256347656255	65.92342376708987	243.1110992431642	611.5964965820315	68.08747863769534	313.311737060547	474.0733642578127	26.03687667846681	291.9660644531251	468.2036132812502	141.016586303711	372.0291442871095	302.2513122558595	11.59567737579346	309.4762573242189	316.7049560546876	101.0671386718751	344.3592224121095	184.1936340332032	91.46538543701175	419.3808593750002	78.58088684082034	45.04914855957033	390.6122741699221	93.2766036987305	131.2120513916016	463.3274841308596	50.62594223022464	95.48913574218753	274.2745056152345	47.4674758911133	65.71405792236331	355.5812072753907	896.3875122070317	184.2621612548829	193.5647277832032	890.523559570313	183.021713256836	354.0838928222657	903.495727539063	346.2266845703126	349.7775268554689	1058.252807617188	177.1046295166016	313.3995971679689	486.4857177734377	306.0533142089845	-91.80252075195315	537.9321289062502	390.422302246094	401.9250488281252	517.2376708984377	712.4659423828127	357.3098144531251	899.234008789063	265.2573852539064	412.6675415039065	90.38361358642581	309.6616821289064	67.46463012695315	5.286148071289064	464.9424438476565	562.5324707031252	131.1802978515626	665.1822509765627	318.3584594726564	466.698425292969	306.2335510253907	286.5142517089845	78.51898956298831	350.0058593750001	280.9187927246095	263.1996459960939	331.1720275878907	324.6653442382814	98.10314941406256	530.7098388671877	468.1902160644534	80.09436798095706	311.4788208007814	225.9556121826173	77.99382781982425	362.8482666015626	224.0904541015626	139.5540618896485	356.5703430175782	238.6726684570314	84.52188873291018	423.0829162597659	286.5142822265626	78.51898193359378	350.0058898925782	300.103240966797	472.9306640625002	81.98757171630862	-109.5967712402344	530.1199340820315	-13.5637435913086	202.5754394531251	464.4929809570315	495.1121520996096	353.8526000976564	893.5410156250005	103.2669525146485	405.9375915527346	85.44806671142581	85.31228637695315	51.46618652343753	-12.2423324584961	-16.37888336181641	307.0345458984376	61.5891036987305	452.9852294921877	305.4254455566407	453.4450683593752	82.1547775268555	278.7951965332032	72.04488372802737	52.41943740844729	274.0418395996095	256.0469665527345	63.08119201660159	250.3484191894532	60.77495574951175	234.2347564697267	460.897399902344	75.08732604980472	81.09968566894534	218.0944213867189	71.03077697753909	42.85931777954103	216.5099945068361	132.3648071289063	46.41323089599611	208.6121368408204	67.2741394042969	103.4644165039063	278.7951965332032	72.04489898681643	52.4194259643555	364.5209960937501	910.5399780273442	185.4980010986329	204.1015472412111	904.7030639648442	184.3094940185547	363.0769042968751	917.5745239257817	345.8673095703126	358.7419738769532	1070.8095703125	178.4157867431641	316.0060119628907	481.268005371094	306.1820068359376	-111.5897216796876	536.041687011719	371.0515441894532	385.2629699707034	513.6330566406252	735.3699951171877	365.114959716797	912.543579101563	265.7349243164064	412.9689941406252	90.55159759521487	309.4580078125001	54.20416259765628	2.86132049560547	469.6780700683596	567.7534179687502	132.0603637695313	678.7695922851565	316.0059509277345	481.268493652344	306.1821594238282	281.7059936523439	76.60780334472659	325.5369873046876	277.8963012695314	262.0257568359376	315.6015930175782	319.9190979003907	87.11548614501956	506.9822387695315	463.4153442382815	78.28549957275393	287.171112060547	221.1360015869142	76.04859924316409	338.3259887695314	219.8661041259767	137.8545074462891	335.0141906738282	233.8736877441407	79.55115509033206	398.8076782226565	281.7057189941407	76.60783386230472	325.5373840332032	302.7579956054689	471.226989746094	82.67459869384768	-128.1119079589844	535.4033203125002	7.024398803710941	224.6568298339845	459.6838378906252	517.711853027344	363.9278869628907	908.5354003906255	105.2596969604493	405.9389953613284	85.56250000000003	85.45880126953128	34.77728271484376	-14.51572418212891	-22.31105041503907	301.135223388672	60.2986755371094	469.8660278320315	302.758758544922	471.2269287109377	82.67446899414065	270.0759887695314	70.46299743652347	76.05539703369143	266.0397338867189	261.7353515625001	80.72720336914065	240.0377197265626	65.21460723876956	264.9823303222657	459.0327148437502	73.71438598632815	106.1887207031251	207.0899963378907	69.37940216064456	66.01100158691409	205.7445831298829	133.1367950439454	67.56826782226565	197.0772552490236	67.62994384765628	128.9865722656251	270.0755004882814	70.46319580078128	76.05543518066409	-3.170043706893923	-12.52088737487794	8.074959754943851	0.6481396555900576	-10.66059494018555	20.73484611511231	0	0	13.16328716278077	0.008230137638747696	10.8408317565918	13.40688705444337	-5.298018455505373	-12.17595577239991	9.405798912048343	-1.908211469650269	-2.342374324798585	22.72212219238282	0.007218609564006332	6.124173641204838	14.30058193206788	0	0	14.21722793579102	2.530291557312013	0.4388039410114291	2.053454875946046	-2.530291557312013	-0.4388039410114291	2.053454875946046	-5.950132369995119	-11.97261238098145	-89.50315093994143	-3.355972766876222	-8.949103355407718	-89.04286193847659	-2.886039972305299	-9.392120361328129	8.513609886169437	1.477149963378907	-13.54119968414307	20.92160034179688	-2.682770013809205	10.81260013580323	13.25419998168946	-5.343520164489748	-9.002650260925297	10.09939956665039	-0.7775620222091679	-5.442420005798342	23.15979766845704	-1.971759915351869	6.238200187683109	13.96319866180421	3.134289979934694	-168.0780029296876	-90.52899932861331	1.416719913482666	-170.9409942626954	-90.98560333251956	177.4879913330079	0.5159209966659548	-177.9140014648438	-177.4879913330079	-0.5159209966659548	-177.9140014648438	365.1149902343751	912.5440063476567	265.7349853515626	316.0060119628907	481.268005371094	306.1820068359376	363.9280090332032	908.5349731445317	105.2600021362305	302.7579956054689	471.226989746094	82.67459869384768	412.9689941406252	90.55159759521487	309.4580078125001	405.9389953613284	85.56250000000003	85.45880126953128	
108	1.07	309.7202758789064	989.0048828125005	311.5388488769532	312.0793762207032	977.4514160156255	48.68338394165042	505.8517150878909	991.8735351562505	231.3400268554689	507.5410461425784	988.614624023438	128.9717712402344	341.9555053710939	651.781188964844	369.275604248047	256.5912170410157	786.9614257812505	314.1150207519532	239.3079986572267	623.096130371094	307.774627685547	325.752899169922	490.6900329589846	362.6362304687501	304.3360900878907	469.7485961914065	238.2295684814454	401.0010070800784	262.9222412109376	365.597137451172	288.8091125488282	376.3335876464845	295.1948242187501	347.9394836425782	207.9076690673829	290.8008728027345	430.7471618652346	88.19802093505862	348.6266479492189	391.7600402832034	92.95416259765628	264.5493469238282	466.1321105957034	57.82105255126956	299.2803955078126	277.7639465332032	56.1589164733887	339.180633544922	351.0234680175782	686.037048339844	-1.763045310974122	256.7064208984376	777.990356445313	66.06862640380862	242.9498596191407	611.640808105469	68.26248168945315	313.1972656250001	473.9954833984377	26.32817268371583	291.9136962890626	468.2450256347659	141.1395416259766	371.9365539550782	302.2082519531251	11.75955963134766	309.402801513672	316.7131958007814	101.2008132934571	344.3138427734376	184.2464294433594	91.59121704101565	419.3126525878909	78.59922027587893	45.07883453369142	390.6131896972659	93.23344421386722	131.3105926513672	463.3249206542971	50.65157699584964	95.55527496337893	274.2711181640626	47.43179321289064	65.70720672607425	355.3720703125001	896.4252319335942	184.3255767822266	193.3549652099611	890.5683593750005	183.1289215087891	353.9184570312501	903.5441894531255	346.2900390625001	349.5736083984376	1058.290283203125	177.1589508056641	313.4669189453126	486.4044189453127	306.1146850585939	-91.89575195312503	537.588562011719	390.3468933105471	401.8359069824221	517.2294921875002	712.6544189453127	357.1224365234376	899.276977539063	265.3201293945314	412.6817932128909	90.40186309814456	309.6679077148439	67.5682067871094	5.329498291015627	464.8865356445315	562.500671386719	131.1268157958985	665.0961914062502	318.424530029297	466.6168212890627	306.292205810547	286.5203857421876	78.51515960693362	349.9802551269532	280.9094543457032	263.1992492675782	331.1842041015626	324.6274414062501	98.06520080566412	530.6972656250002	468.2051696777346	80.1182556152344	311.4957275390626	225.9588317871095	77.98077392578128	362.8084716796876	224.0885162353517	139.5421447753907	356.5431213378907	238.6611633300782	84.49744415283206	423.0474853515627	286.5204162597657	78.51514434814456	349.9803161621095	300.048309326172	472.8713378906252	82.29326629638675	-109.8348388671876	529.825378417969	-12.86461639404298	202.9468688964845	464.5695800781252	495.579284667969	353.6215820312501	893.5734863281255	103.3310241699219	405.9065246582034	85.43519592285159	85.35965728759768	51.39248657226565	-12.23043060302735	-16.05432891845704	307.3356323242189	61.413200378418	453.0691528320315	305.3722229003907	453.386169433594	82.44747161865237	278.7813110351564	71.99558258056643	52.41503906250003	273.9541625976564	255.9920654296876	63.14128494262698	250.2716674804689	60.64938735961917	234.2157592773439	460.8718261718752	75.09680938720706	81.163688659668	218.0845184326173	70.96185302734378	42.83214187622072	216.4754486083986	132.2939910888672	46.40755462646486	208.5812988281251	67.17978668212893	103.4323806762696	278.7813110351564	71.99561309814456	52.41502761840823	364.3450012207032	910.5540161132817	185.572006225586	203.9253692626954	904.7164916992192	184.4100036621094	362.9277343750001	917.5789184570317	345.9419555664064	358.5641479492189	1070.823974609375	178.5003814697266	315.946014404297	481.2640075683596	306.2359924316407	-111.6248474121094	535.9500732421877	371.3427734375001	385.4289245605471	513.5947265625002	735.3900146484377	364.9519653320314	912.553344726563	265.8099975585939	412.9500122070315	90.55619812011722	309.4419860839845	54.27783203125003	2.821960449218751	469.845397949219	567.9234619140627	132.0622711181641	678.6746826171877	315.9460449218751	481.2634887695315	306.2362060546876	281.6900024414064	76.584098815918	325.5289916992189	277.8435058593751	262.0030822753907	315.626922607422	319.9155883789064	87.0668640136719	506.973083496094	463.395935058594	78.30391693115237	287.1488647460939	221.1219940185548	76.01090240478518	338.321990966797	219.8398284912111	137.8171691894532	335.0213012695314	233.8638458251954	79.50514984130862	398.8032836914065	281.6905822753907	76.58417510986331	325.5286254882814	302.6470031738282	471.2250061035159	82.92769622802737	-128.2580566406251	535.289489746094	7.382957458496097	224.6782226562501	459.8257446289065	517.9924926757815	363.7382202148439	908.5534667968755	105.3345336914063	405.903991699219	85.58000183105472	85.50949859619143	34.71615600585939	-14.52670288085938	-22.14384460449219	301.2684936523439	60.13742828369143	469.9507446289065	302.6469726562501	471.225280761719	82.92773437500003	270.0520019531251	70.41880035400393	76.05960083007815	265.9195861816407	261.686492919922	80.83866882324222	239.9648437500001	65.04846954345706	264.9753417968751	458.9989013671877	73.74684143066409	106.2463378906251	207.0700073242189	69.30979919433597	65.99700164794925	205.6925354003907	133.0656280517579	67.59002685546878	197.0409698486329	67.51969146728518	128.9688568115235	270.0522460937501	70.41914367675784	76.05923461914065	-3.162678241729738	-12.48226642608643	8.037351608276371	0.6710703969001772	-10.6795768737793	20.696439743042	0	0	13.15348339080811	0.008193737827241424	10.85431098937989	13.39750003814698	-5.271084308624269	-12.13524150848389	9.376885414123539	-1.947292685508729	-2.364456892013551	22.68891906738282	0.007191998884081844	6.05448150634766	14.27867889404298	0	0	14.19734764099122	2.533503055572511	0.4233156442642214	2.051608324050904	-2.533503055572511	-0.4233156442642214	2.051608324050904	-5.93785333633423	-11.95919132232666	-89.49444580078128	-3.37654232978821	-8.970598220825199	-89.02429199218753	-2.885410070419312	-9.413299560546879	8.50109958648682	1.474480032920838	-13.5412998199463	20.91600036621094	-2.687870025634767	10.83870029449463	13.24989891052247	-5.318480014801027	-8.999079704284672	10.08819961547852	-0.821733951568604	-5.446819782257082	23.15189933776856	-1.959400057792664	6.198669910430912	13.94519996643067	3.123749971389772	-168.0740051269532	-90.54219818115237	1.448940038681031	-170.9239959716797	-91.00879669189456	177.4920043945313	0.5063449740409853	-177.9140014648438	-177.4920043945313	-0.5063449740409853	-177.9140014648438	364.9519958496095	912.5529785156255	265.8099975585939	315.946014404297	481.2640075683596	306.2359924316407	363.738006591797	908.5540161132817	105.3349990844727	302.6470031738282	471.2250061035159	82.92769622802737	412.9500122070315	90.55619812011722	309.4419860839845	405.903991699219	85.58000183105472	85.50949859619143	
